# xmcd CD database file
#
# Track frame offsets:
#	150
#	8667
#	29925
#	37230
#	50185
#	81937
#	99462
#	114557
#	123675
#	136792
#	145332
#	163562
#	188405
#	204150
#	228150
#
# Disc length: 3499 seconds
#
# Revision: 0
# Processed by: cddbd v1.5.1PL0 Copyright (c) Steve Scherf et al.
# Submitted via: CDex 1.51
#
DISCID=ce0da90f
DTITLE=平山照継 - ノイの城 Castle Of Noi
DYEAR=1988
DGENRE=Progressive Rock
TTITLE0=序奏とメインタイトル Opening And Maintitle
TTITLE1=Mystic World
TTITLE2=Nelfelti
TTITLE3=少年と兵隊 A Boy And A Cat Soldier
TTITLE4=情景 The Scene
TTITLE5=Teles Pharas Maris Part I Teles Pharas Maris
TTITLE6=Teles Pharas Maris Part II The Battle In The Wood
TTITLE7=Castle Of Noi Part I Castle Of Noi
TTITLE8=Castle Of Noi Part II Odd People
TTITLE9=Castle Of Noi Part III Parting
TTITLE10=Castle Of Noi Part IV Memories Grand Finale
TTITLE11=13日の金曜日に.... On The 13th, Friday
TTITLE12=Love Songs
TTITLE13=寂しい町で In The Town For Loneliness
TTITLE14=Innocence (束の間の美)
EXTD=YEAR: 1988
EXTT0=
EXTT1=
EXTT2=
EXTT3=
EXTT4=
EXTT5=
EXTT6=
EXTT7=
EXTT8=
EXTT9=
EXTT10=
EXTT11=
EXTT12=
EXTT13=
EXTT14=
PLAYORDER=
